<svg width="766" height="750" viewBox="0 0 766 750" fill="none" xmlns="http://www.w3.org/2000/svg">
<path fill-rule="evenodd" clip-rule="evenodd" d="M494.52 749.511C651.65 701.762 766 555.735 766 383C766 171.475 594.525 0 383 0C171.475 0 0 171.475 0 383C0 476.086 33.208 561.416 88.4238 627.789C87.8262 615.544 87.9268 603.163 88.7754 591.086C94.0894 518.39 114.926 455.34 150.027 406.13C160.375 391.591 184.289 366.707 198.692 355.383C216.173 341.823 230.717 333.435 271.411 313.443C312.246 293.592 323.853 285.903 334.481 272.622C340.075 265.492 346.787 253.609 347.906 248.856C348.186 247.737 344.41 245.501 338.536 243.264C318.818 235.435 299.66 220.057 289.312 203.561C275.327 181.472 278.124 156.169 296.583 136.876C313.504 119.122 339.375 113.39 363.009 122.197C378.531 128.069 398.809 145.264 406.641 159.244C409.717 164.417 410.137 164.696 414.751 163.997C416.08 163.718 417.339 163.438 418.283 163.228C419.227 163.019 419.855 162.879 419.926 162.879C419.926 162.739 419.366 157.007 418.527 150.297C415.311 123.735 423.142 103.604 439.783 94.7965C443 92.9791 447.755 92.1403 453.349 92.0005C478.8 91.8607 499.916 120.659 500.056 155.749V164.417L508.167 165.255C539.072 169.03 585.221 187.064 621.58 209.991C649.13 227.187 657.24 235.295 656.961 244.802C656.821 248.297 657.24 248.716 659.897 248.017C675.28 243.823 698.494 243.543 715.136 247.178C726.604 249.695 722.967 250.114 709.682 247.877C694.858 245.221 682.272 245.221 668.708 247.877C655.982 250.254 653.186 251.512 658.08 252.91L661.576 253.889L657.8 254.028C653.465 254.168 652.346 257.803 656.401 258.782C658.22 259.341 658.08 259.481 655.842 259.62C653.045 259.76 651.088 262.137 651.088 265.492C651.088 266.191 654.304 268.428 658.359 270.385C672.064 277.375 688.426 290.376 699.334 303.098C701.711 305.754 698.774 303.517 693.041 298.065C680.874 286.602 667.17 276.257 657.8 271.503C654.164 269.686 650.808 268.148 650.389 268.148C648.011 268.148 650.808 271.084 658.639 277.095C663.533 280.87 670.666 287.441 674.302 291.774L681.014 299.603L670.525 289.677C659.059 278.913 650.947 272.342 648.71 272.342C647.871 272.342 646.473 274.439 645.354 276.816C644.375 279.332 641.998 283.526 640.04 286.182C636.544 290.936 636.404 291.495 636.544 312.744C636.684 332.596 636.544 333.574 635.425 323.369C634.726 317.218 634.446 307.292 634.865 301.141L635.425 290.237L631.789 293.592C625.356 299.463 615.428 305.475 607.876 307.991C603.96 309.249 600.744 310.787 600.744 311.207C600.744 311.766 599.346 312.185 597.667 312.185C595.85 312.325 592.073 312.744 589.137 313.303L583.822 314.422L588.717 304.916C591.234 299.743 595.709 291.914 598.506 287.72C602.842 281.15 602.981 280.73 599.485 284.784C595.849 288.839 592.073 295.269 583.963 310.647C582.284 314.003 579.487 315.68 569.979 319.175C548.722 327.144 536.415 334.553 522.851 347.974C507.048 363.631 500.896 381.386 502.993 404.453C506.069 437.585 503.832 455.34 492.364 489.032C489.567 497.14 486.212 508.324 484.673 513.916L482.017 524.261L486.771 560.05C489.428 579.622 491.665 596.678 491.665 597.656C491.665 598.775 496.141 604.367 501.595 610.098C506.908 615.83 512.362 622.68 513.481 625.337C516.418 632.466 515.998 646.866 512.362 656.372C506.908 671.191 490.267 683.493 476.423 683.214H472.786L476.282 680.837C478.24 679.579 482.296 676.084 485.372 673.148L490.966 667.836L483.834 672.17C476.423 676.643 465.095 679.439 465.095 676.643C465.095 675.944 470.409 670.352 476.981 664.481C488.449 653.996 492.085 649.103 483.555 655.394C479.639 658.329 467.892 660.986 467.892 659.028C467.892 657.77 475.024 643.371 477.821 638.897C479.639 635.961 479.499 635.542 475.583 632.187C460.899 619.884 429.854 598.076 426.778 598.076C426.358 598.076 425.938 601.571 425.938 605.765C425.938 615.551 422.723 621.981 413.772 630.369C407.619 636.101 406.641 638.058 401.326 654.135C390.978 685.311 375.455 713.41 358.254 731.864C352.521 738.155 350.843 740.811 352.101 741.65C353.08 742.209 381.608 742.768 415.45 742.768C474.325 742.908 477.401 743.048 485.652 745.844C488.666 746.861 491.647 748.098 494.52 749.511ZM503.692 223.971C498.657 216.562 498.657 207.895 503.692 202.862C508.167 198.388 507.607 197.969 501.454 200.485C495.302 203.141 490.267 207.755 490.267 210.83C490.267 213.626 500.336 225.509 504.531 227.746C506.908 229.004 506.908 228.585 503.692 223.971ZM612.631 228.165L608.436 223.552C604.659 219.498 593.752 212.508 593.752 214.325C593.752 214.605 595.569 215.863 597.947 217.121C600.185 218.24 604.52 221.315 607.316 223.692L612.631 228.165ZM645.494 243.963C641.718 244.941 635.984 241.027 634.865 236.693C633.607 231.521 631.51 232.499 631.51 238.091C631.51 243.264 635.425 248.576 639.201 248.576C641.857 248.576 648.291 245.64 648.291 244.242C648.291 243.683 647.032 243.543 645.494 243.963ZM588.577 241.167C590.675 241.446 593.752 241.446 595.569 241.167C597.248 240.887 595.569 240.608 591.654 240.608C587.878 240.608 586.34 240.887 588.577 241.167ZM575.292 242.565C576.131 242.844 577.81 242.844 578.788 242.565C579.627 242.145 578.928 241.866 576.971 241.866C575.013 241.866 574.313 242.145 575.292 242.565ZM566.901 243.963C567.88 244.382 569.139 244.242 569.559 243.823C570.118 243.404 569.279 242.984 567.74 243.124C566.202 243.124 565.782 243.543 566.901 243.963ZM543.407 289.258C555.015 280.031 564.104 274.02 577.11 266.89C582.844 263.675 586.899 261.158 586.061 261.158C580.466 261.158 544.526 284.784 537.114 293.312C535.576 295.13 538.373 293.312 543.407 289.258ZM601.163 268.288C602.422 267.309 603.541 266.191 603.541 265.911C603.541 264.793 602.422 265.492 600.604 267.729C598.786 269.966 598.926 270.105 601.163 268.288ZM578.624 290.112C580.822 287.841 583.399 285.177 586.061 282.408C592.912 275.418 598.087 269.546 597.527 269.546C595.989 269.546 577.81 288.14 574.313 293.312C572.495 295.968 571.517 297.506 572.216 296.807C572.644 296.294 575.163 293.689 578.624 290.112ZM606.757 276.676C608.854 274.719 610.533 273.041 610.533 272.762C610.533 271.643 609.414 272.622 606.197 276.117L602.842 280.031L606.757 276.676ZM602.002 305.615C599.485 312.045 602.142 307.991 607.037 297.646C609.693 292.194 611.512 287.72 611.232 287.72C610.532 287.72 604.1 300.162 602.002 305.615Z" fill="white"/>
</svg>
